<?xml version="1.0" encoding="iso-8859-1"?>
<!-- Generator: Adobe Illustrator 19.0.0, SVG Export Plug-In . SVG Version: 6.00 Build 0)  -->
<svg version="1.1" id="Layer_1" xmlns="http://www.w3.org/2000/svg" xmlns:xlink="http://www.w3.org/1999/xlink" x="0px" y="0px"
	 viewBox="0 0 512 512" style="enable-background:new 0 0 512 512;" xml:space="preserve">
<path style="fill:#F24141;" d="M436.091,399.521c-20.491,20.491-43.903,36.277-68.9,47.368
	c37.306-84.011,21.532-185.889-47.356-254.777c-33.758-33.746-75.427-54.758-119.035-63.011
	c-45.393-8.596-92.891-3.382-135.754,15.644c11.103-24.985,26.877-48.409,47.368-68.888c89.38-89.38,234.298-89.38,323.677,0
	c33.758,33.77,54.77,75.462,63.023,119.094C512.712,266.805,491.701,343.911,436.091,399.521z"/>
<path style="fill:#D83535;" d="M436.091,399.521c-20.491,20.491-43.903,36.277-68.9,47.368
	c37.306-84.011,21.532-185.889-47.356-254.777c-33.758-33.746-75.427-54.758-119.035-63.011
	c1.892-0.851,161.106-71.348,298.314,65.849C512.712,266.805,491.701,343.911,436.091,399.521z"/>
<path d="M507.836,193.301c-0.91-4.812-5.544-7.98-10.362-7.066c-4.813,0.91-7.977,5.549-7.066,10.362
	c1.142,6.039,2.005,12.091,2.638,18.143l-58.555,58.555c-3.463,3.463-3.463,9.079,0,12.541c1.731,1.731,4.001,2.598,6.27,2.598
	c2.269,0,4.539-0.866,6.27-2.598l47.208-47.208c-0.253,57.505-22.992,113.196-64.422,154.625
	c-13.853,13.852-29.278,25.67-46.042,35.295c9.679-29.266,13.514-60.028,11.384-90.84l27.928-27.928
	c3.463-3.463,3.463-9.079,0-12.541c-3.463-3.463-9.079-3.463-12.541,0l-18.005,18.005c-0.162-0.986-0.303-1.975-0.478-2.961
	c-7.997-45.166-28.617-86.49-59.812-120.054l103.699-103.7c20.035,21.664,35.248,46.622,45.246,74.332
	c1.661,4.607,6.745,6.994,11.351,5.332c4.607-1.663,6.994-6.745,5.332-11.351c-11.888-32.948-30.568-62.307-55.522-87.261
	c-92.695-92.695-243.52-92.695-336.215,0c-20.794,20.793-37.347,44.873-49.2,71.568c-1.489,3.352-0.76,7.275,1.834,9.87
	c2.593,2.594,6.519,3.324,9.87,1.834c40.198-17.846,84.432-23.211,127.916-15.512c44.477,7.875,84.933,28.982,116.992,61.043
	s53.168,72.515,61.043,116.992c7.699,43.487,2.335,87.719-15.512,127.916c-1.489,3.352-0.76,7.275,1.834,9.87
	c1.699,1.699,3.967,2.598,6.273,2.598c1.214,0,2.439-0.249,3.597-0.764c26.694-11.851,50.773-28.405,71.568-49.2
	C498.001,350.154,522.477,270.718,507.836,193.301z M196.692,119.396l57.912-57.912c3.463-3.463,3.463-9.079,0-12.541
	c-3.463-3.463-9.079-3.463-12.541,0l-67.836,67.836c-30.81-2.128-61.57,1.706-90.834,11.386
	c9.624-16.764,21.442-32.19,35.295-46.042c42.624-42.624,98.53-64.058,154.519-64.322L262.46,28.549
	c-3.463,3.463-3.463,9.079,0,12.541c1.731,1.732,4.001,2.598,6.27,2.598s4.539-0.866,6.27-2.598l22.108-22.108
	c45.747,4.737,90.275,23.741,126.303,57.007L319.713,179.687c-33.564-31.195-74.888-51.816-120.054-59.812
	C198.671,119.698,197.681,119.558,196.692,119.396z"/>
<path d="M334.887,442.977L19.513,492.426l49.449-315.374c0.759-4.838-2.549-9.377-7.388-10.135
	c-4.836-0.753-9.375,2.549-10.135,7.388L0.107,501.699c-0.439,2.8,0.487,5.64,2.49,7.644c1.675,1.676,3.937,2.598,6.27,2.598
	c0.456,0,0.916-0.035,1.374-0.106l327.394-51.334c4.839-0.759,8.147-5.296,7.388-10.135
	C344.264,445.525,339.715,442.216,334.887,442.977z"/>
<g>
</g>
<g>
</g>
<g>
</g>
<g>
</g>
<g>
</g>
<g>
</g>
<g>
</g>
<g>
</g>
<g>
</g>
<g>
</g>
<g>
</g>
<g>
</g>
<g>
</g>
<g>
</g>
<g>
</g>
</svg>
